<?xml version="1.0" encoding="UTF-8"?>
<svg width="274.23" height="254.4" fill-rule="evenodd" image-rendering="optimizeQuality" shape-rendering="geometricPrecision" text-rendering="geometricPrecision" viewBox="0 0 77.3936 71.7987" xmlns="http://www.w3.org/2000/svg">
 <path d="m1.4655,31.8023c-.0933-.9348.8585-.7422 1.4854-.7422l21.0925-.0011c1.9783,0 3.96201.143 5.93521-.0002 3.1682-.23 4.49021-8.69251 5.14391-11.0213-.4987,1.0735-.713,2.227-1.0346,3.1895-1.1794,3.5293-1.8984,5.97611-6.06851,5.97631h-25.303c-.4904,0-1.4542-.089-1.8691.104-1.4279.6648-.9636,2.5244.7382,2.9557 .4553.1154-.0187.1072-.12-.4607z" fill="#093"/>
 <path d="m2.6374,27.7309c-.0818-.9348.7524-.7423 1.3018-.7423l18.4846-.001c1.7338,0 3.4722.143 5.20141-.0002 2.7765-.23 5.12721-11.1576 5.70011-13.4864-1.8665,4.58551-2.5448,11.6306-7.41711,11.6309h-22.1745c-.4298,0-1.2744-.089-1.638.104-1.2514.6648-.8445,2.5244.6469,2.9557 .399.1153-.0164.1072-.1052-.4607z" fill="#093"/>
 <path d="m4.08291,23.6686c-.0692-.9349.636-.7423 1.1006-.7423l15.6277-.001c1.4658-.0001 2.9356.1429 4.39751-.0003 2.3474-.23 5.79791-14.6612 6.28221-16.99-1.8754,4.52611-3.4824,15.091-7.38531,15.1345-6.24891.0697-12.8468,0-19.0959,0-.3634,0-1.0774-.089-1.3848.104-1.058.6648-.714,2.5244.5469,2.9557 .3373.1154-.0139.1072-.0889-.4606z" fill="#093"/>
 <path d="m33.0731,2.6356c.3061-1.1682.7828-1.261 1.1627-.1493 2.8749,8.41171 5.65261,16.8573 8.62461,25.235 .3605,1.0162.9118,1.5286 1.6797,1.8913 1.5849.7485 7.46891.3057 9.47351.2775 .1747-.0112 1.1899-.0225 1.3646-.0338-3.0702-.5846-9.50101.749-10.8162-3.1045l-8.62181-25.2484c-.9799-2.8698-2.9035-.9942-2.9752.3903-.0111.2135.0506.3864.1081.7419z" fill="#093"/>
 <path d="m37.3948,2.2851c.3648-1.0128.8462-1.0933 1.1702-.1294 2.4524,7.29301 4.80601,14.6154 7.35721,21.8791 .2527.7193.6494,1.1474 1.1945,1.4515 1.6067.8963 12.6616.3011 15.1749.1609-2.4829-.3286-9.25731.4492-12.6411-.5532-1.9307-.5719-1.7665-1.2699-2.2426-2.6879l-.5959-1.774-6.49321-19.3287c-.8358-2.488-2.8536-.8619-2.9948.3385-.0218.1851.0311.3349.0708.6432z" fill="#093"/>
 <path d="m41.6439,2.176c.4026-.8544.887-.9223 1.1751-.1091 2.1804,6.15281 4.26091,12.3304 6.54121,18.4584 .2258.6069.6066.9681 1.1404,1.2247 1.5731.7561 13.6699.1466 16.1884.0283-2.4707-.2772-10.2936.4863-13.64-.3593-1.9094-.4825-1.7192-1.0714-2.1424-2.2677l-.5297-1.4967c-1.9238-5.43561-3.8485-10.8712-5.77231-16.3068-.743-2.099-2.8215-.7271-3.0075.2856-.0287.1561.0187.2826.0468.5426z" fill="#093"/>
 <path d="m72.2413,21.9607c1.2069-.0258 1.4316.4073.4739,1.0774-7.24601,5.07071-14.5522,10.0573-21.7381,15.2122-.8716.6252-1.2059,1.2959-1.3351,2.1338-.2667,1.7296 1.832,7.26721 2.4294,9.18741 .0605.1649.3601,1.1382.4206,1.3031-.2766-1.7153-1.1567-3.8291-1.6745-5.85321-.5702-2.2287-.4187-4.00731 1.5733-5.40031l.8971-.6275 8.08411-5.65411 12.7705-8.93171c2.4723-1.729.1269-3.0649-1.2207-2.7544-.2079.0479-.3561.1545-.6805.3073z" fill="#093"/>
 <path d="m74.1635,25.6282c1.0456.1111 1.2402.5697.4105,1.1311-6.27721,4.24871-12.6065,8.40661-18.8316,12.7461-.7551.5264-1.4787,1.7232-1.5906,2.5465-.3204,2.3567 2.9167,9.21811 3.8141,12.1589-.2396-1.7466-2.0697-5.85411-2.3618-7.95231-.4808-3.4532.2734-4.46001 2.1401-5.74761l7.00331-4.73701 11.063-7.48291c2.1418-1.4486.11-3.0506-1.0575-2.8929-.18.0243-.3084.1141-.5895.2301z" fill="#093"/>
 <path d="m75.2669,29.6905c.8598.2167 1.0198.6949.3376,1.1726-5.16211,3.6147-10.3669,7.13341-15.4861,10.8443-.6209.4501-1.216,1.5739-1.308,2.3858-.2635,2.3243 4.05431,10.6165 4.79231,13.648-.1079-1.7658-1.9435-5.50001-2.9796-9.29261-.5955-2.1802-.736-4.07971 1.1415-5.53361l5.75911-4.02971 9.09761-6.36561c1.7613-1.2323.0904-3.0395-.8697-2.9998-.148.0061-.2536.0831-.4847.1706z" fill="#093"/>
 <path d="m65.4288,64.5187c-.4835.8164-1.1319.1082-1.6347-.2549l-16.9174-12.2144c-1.5867-1.1457-3.2239-2.2256-4.76031-3.4371-.6284-.4954-1.5408-.6715-2.4782-.259-3.431,1.51-8.41541,5.95561-9.89661,6.92151 1.0411-.5867 3.6809-2.3492 4.51371-2.9478 2.2746-1.6351 3.87321-2.6357 5.98031-2.1914 .7219.1522 1.4904.5084 2.3438,1.1246l20.2937,14.6537c.3934.284 1.1132.9148 1.5612.9976 1.5423.2848 2.2806-1.5007 1.1734-2.838-.2963-.3577.079-.0766-.1789.4452z" fill="#093"/>
 <path d="m61.6813,66.8441c-.4202.8668-.9838.2262-1.4208-.0845l-14.7038-10.4508c-1.3791-.9803-2.6321-2.2046-4.13751-2.9408-3.1259-1.5285-11.4758,6.58241-13.289,7.96291 1.5902-1.2218 5.23051-4.25351 8.47571-5.83511 3.51-1.7108 4.29211-.3654 7.25191,1.7592 1.9484,1.3985 3.87581,2.9147 4.52601,3.377l11.0763,7.87371c.3418.243.9674.7987 1.3568.8349 1.3406.124 1.9823-1.7385 1.0199-2.9603-.2575-.3269.0687-.0849-.1555.4638z" fill="#093"/>
 <path d="m58.2607,69.2118c-.3679.9108-.8612.329-1.2438.064l-12.8715-8.91391c-1.7559-1.2161-2.4816-2.4737-3.92181-2.49-.592-.0067-1.3102.1624-2.2595.6985-3.90491,2.2053-10.3957,7.60111-11.8184,8.63521 .9895-.9866 6.54911-4.74161 10.1317-6.65541 3.6296-1.9389 3.4838-1.0941 6.38091.9355 1.7055,1.1949 3.3927,2.5097 3.96201,2.9039l9.69591,6.71601c.2993.2073.8469.6976 1.1878.693 1.1735-.0161 1.7352-1.9456.8928-3.0669-.2254-.3.0601-.092-.1361.4801z" fill="#093"/>
 <path d="m21.4979,70.0963c-.9255-.2019-.4509-1.0082-.26-1.5782l6.42171-19.1767c.6023-1.7986 1.1266-3.6241 1.807-5.39611 .2782-.7246.1653-1.6156-.5155-2.3547-2.4916-2.7052-8.25441-5.96621-9.62891-7.04081 .8784.7827 3.3671,2.6856 4.19281,3.2733 2.2552,1.605 4.06251,2.7167 4.28761,4.78531 .077.7086-.3893,1.5815-.7132,2.5489l-7.70481,23.0044c-.1494.4458-.5283,1.2947-.4694,1.7311 .2032,1.5022 2.1292,1.6506 3.0613.2357 .2494-.3785.0972.0499-.4786-.0322z" fill="#093"/>
 <path d="m17.8121,67.5402c-.9327-.1763-.4866-.8803-.3159-1.378l5.74261-16.7442c.5387-1.5705.9983-3.1645 1.616-4.71171 .2525-.6327.108-1.4107-.5989-2.056-2.5874-2.362-9.73721-6.83851-11.1497-7.77681 1.9733,1.4883 9.75961,6.98441 10.0372,8.66551 .1022.6188-.3333,1.3809-.623,2.2256-2.2963,6.69551-4.59341,13.3909-6.89011,20.0864-.1336.3893-.4824,1.1305-.4081,1.5115 .2564,1.3117 2.1876,1.4412 3.0696.2058 .236-.3305.099.0436-.4797-.0281z" fill="#093"/>
 <path d="m14.3471,64.8673c-.9437-.1472-.5416-.7349-.4019-1.1503l4.69741-13.9771c.4407-1.311.8008-2.6415 1.3219-3.93301 .3959-.9814-1.6346-2.795-2.6489-3.5001-3.7248-2.5899-9.93941-6.56971-11.1382-7.22841 1.4691.8421 6.57231,4.43471 9.63141,7.08071 2.4562,2.1245 2.682,2.1667 1.8874,4.53121l-5.63641,16.7669c-.1092.325-.4118.9437-.3137,1.2618 .3383,1.0949 2.2776,1.203 3.0825.1718 .2153-.2759.1017.0363-.4815-.0235z" fill="#093"/>
</svg>
